<?xml version="1.0" encoding="UTF-8"?>
<!DOCTYPE svg PUBLIC "-//W3C//DTD SVG 1.1//EN"
    "http://www.w3.org/Graphics/SVG/1.1/DTD/svg11.dtd">
<svg xmlns="http://www.w3.org/2000/svg" height="50.3288" stroke-opacity="1" viewBox="0 0 200 50" font-size="1" width="200.0000" xmlns:xlink="http://www.w3.org/1999/xlink" stroke="rgb(0,0,0)" version="1.1">
  <defs>
  </defs>
  <defs>
  </defs>
  <g stroke-linejoin="miter" stroke-opacity="1.0" fill-opacity="0.0" stroke="rgb(0,0,0)" stroke-width="0.5" fill="rgb(0,0,0)" stroke-linecap="butt" stroke-miterlimit="10.0">
    <path d="M 144.7085,29.5025 c -2.2982,-2.2982 2.2982,-28.3442 16.8533 -25.2800c 14.5551,3.0642 39.0690,35.2387 25.2800 42.1333c -13.7891,6.8945 -65.8811,-11.4909 -75.8399 -25.2800c -9.9588,-13.7891 22.2157,-22.9818 33.7066 -16.8533c 11.4909,6.1285 2.2982,27.5781 -0.0000 25.2800Z"/>
  </g>
  <defs>
  </defs>
  <g stroke-linejoin="miter" stroke-opacity="1.0" fill-opacity="1.0" stroke="rgb(0,0,0)" stroke-width="0.0" fill="rgb(0,0,255)" stroke-linecap="butt" stroke-miterlimit="10.0">
    <path d="M 146.3938,4.2225 c 0.0000,-0.9308 -0.7545,-1.6853 -1.6853 -1.6853c -0.9308,-0.0000 -1.6853,0.7545 -1.6853 1.6853c -0.0000,0.9308 0.7545,1.6853 1.6853 1.6853c 0.9308,0.0000 1.6853,-0.7545 1.6853 -1.6853Z"/>
  </g>
  <defs>
  </defs>
  <g stroke-linejoin="miter" stroke-opacity="1.0" fill-opacity="1.0" stroke="rgb(0,0,0)" stroke-width="0.0" fill="rgb(0,0,255)" stroke-linecap="butt" stroke-miterlimit="10.0">
    <path d="M 112.6872,21.0758 c 0.0000,-0.9308 -0.7545,-1.6853 -1.6853 -1.6853c -0.9308,-0.0000 -1.6853,0.7545 -1.6853 1.6853c -0.0000,0.9308 0.7545,1.6853 1.6853 1.6853c 0.9308,0.0000 1.6853,-0.7545 1.6853 -1.6853Z"/>
  </g>
  <defs>
  </defs>
  <g stroke-linejoin="miter" stroke-opacity="1.0" fill-opacity="1.0" stroke="rgb(0,0,0)" stroke-width="0.0" fill="rgb(0,0,255)" stroke-linecap="butt" stroke-miterlimit="10.0">
    <path d="M 188.5271,46.3558 c 0.0000,-0.9308 -0.7545,-1.6853 -1.6853 -1.6853c -0.9308,-0.0000 -1.6853,0.7545 -1.6853 1.6853c -0.0000,0.9308 0.7545,1.6853 1.6853 1.6853c 0.9308,0.0000 1.6853,-0.7545 1.6853 -1.6853Z"/>
  </g>
  <defs>
  </defs>
  <g stroke-linejoin="miter" stroke-opacity="1.0" fill-opacity="1.0" stroke="rgb(0,0,0)" stroke-width="0.0" fill="rgb(0,0,255)" stroke-linecap="butt" stroke-miterlimit="10.0">
    <path d="M 163.2471,4.2225 c 0.0000,-0.9308 -0.7545,-1.6853 -1.6853 -1.6853c -0.9308,-0.0000 -1.6853,0.7545 -1.6853 1.6853c -0.0000,0.9308 0.7545,1.6853 1.6853 1.6853c 0.9308,0.0000 1.6853,-0.7545 1.6853 -1.6853Z"/>
  </g>
  <defs>
  </defs>
  <g stroke-linejoin="miter" stroke-opacity="1.0" fill-opacity="1.0" stroke="rgb(0,0,0)" stroke-width="0.0" fill="rgb(0,0,255)" stroke-linecap="butt" stroke-miterlimit="10.0">
    <path d="M 146.3938,29.5025 c 0.0000,-0.9308 -0.7545,-1.6853 -1.6853 -1.6853c -0.9308,-0.0000 -1.6853,0.7545 -1.6853 1.6853c -0.0000,0.9308 0.7545,1.6853 1.6853 1.6853c 0.9308,0.0000 1.6853,-0.7545 1.6853 -1.6853Z"/>
  </g>
  <defs>
  </defs>
  <g stroke-linejoin="miter" stroke-opacity="1.0" fill-opacity="0.0" stroke="rgb(0,0,0)" stroke-width="0.5" fill="rgb(0,0,0)" stroke-linecap="butt" stroke-miterlimit="10.0">
    <path d="M 46.6305,29.5025 c 1.8057,-16.1009 3.6114,-32.2019 16.8533 -25.2800c 13.2419,6.9219 37.9199,36.8666 25.2800 42.1333c -12.6400,5.2667 -62.5980,-14.1447 -75.8399 -25.2800c -13.2419,-11.1352 10.2324,-13.9943 33.7066 -16.8533"/>
  </g>
  <defs>
  </defs>
  <g stroke-linejoin="miter" stroke-opacity="1.0" fill-opacity="1.0" stroke="rgb(0,0,0)" stroke-width="0.0" fill="rgb(0,0,255)" stroke-linecap="butt" stroke-miterlimit="10.0">
    <path d="M 48.3158,4.2225 c 0.0000,-0.9308 -0.7545,-1.6853 -1.6853 -1.6853c -0.9308,-0.0000 -1.6853,0.7545 -1.6853 1.6853c -0.0000,0.9308 0.7545,1.6853 1.6853 1.6853c 0.9308,0.0000 1.6853,-0.7545 1.6853 -1.6853Z"/>
  </g>
  <defs>
  </defs>
  <g stroke-linejoin="miter" stroke-opacity="1.0" fill-opacity="1.0" stroke="rgb(0,0,0)" stroke-width="0.0" fill="rgb(0,0,255)" stroke-linecap="butt" stroke-miterlimit="10.0">
    <path d="M 14.6092,21.0758 c 0.0000,-0.9308 -0.7545,-1.6853 -1.6853 -1.6853c -0.9308,-0.0000 -1.6853,0.7545 -1.6853 1.6853c -0.0000,0.9308 0.7545,1.6853 1.6853 1.6853c 0.9308,0.0000 1.6853,-0.7545 1.6853 -1.6853Z"/>
  </g>
  <defs>
  </defs>
  <g stroke-linejoin="miter" stroke-opacity="1.0" fill-opacity="1.0" stroke="rgb(0,0,0)" stroke-width="0.0" fill="rgb(0,0,255)" stroke-linecap="butt" stroke-miterlimit="10.0">
    <path d="M 90.4491,46.3558 c 0.0000,-0.9308 -0.7545,-1.6853 -1.6853 -1.6853c -0.9308,-0.0000 -1.6853,0.7545 -1.6853 1.6853c -0.0000,0.9308 0.7545,1.6853 1.6853 1.6853c 0.9308,0.0000 1.6853,-0.7545 1.6853 -1.6853Z"/>
  </g>
  <defs>
  </defs>
  <g stroke-linejoin="miter" stroke-opacity="1.0" fill-opacity="1.0" stroke="rgb(0,0,0)" stroke-width="0.0" fill="rgb(0,0,255)" stroke-linecap="butt" stroke-miterlimit="10.0">
    <path d="M 65.1691,4.2225 c 0.0000,-0.9308 -0.7545,-1.6853 -1.6853 -1.6853c -0.9308,-0.0000 -1.6853,0.7545 -1.6853 1.6853c -0.0000,0.9308 0.7545,1.6853 1.6853 1.6853c 0.9308,0.0000 1.6853,-0.7545 1.6853 -1.6853Z"/>
  </g>
  <defs>
  </defs>
  <g stroke-linejoin="miter" stroke-opacity="1.0" fill-opacity="1.0" stroke="rgb(0,0,0)" stroke-width="0.0" fill="rgb(0,0,255)" stroke-linecap="butt" stroke-miterlimit="10.0">
    <path d="M 48.3158,29.5025 c 0.0000,-0.9308 -0.7545,-1.6853 -1.6853 -1.6853c -0.9308,-0.0000 -1.6853,0.7545 -1.6853 1.6853c -0.0000,0.9308 0.7545,1.6853 1.6853 1.6853c 0.9308,0.0000 1.6853,-0.7545 1.6853 -1.6853Z"/>
  </g>
</svg>