<?xml version="1.0" encoding="UTF-8"?>
<!DOCTYPE svg PUBLIC "-//W3C//DTD SVG 1.1//EN"
    "http://www.w3.org/Graphics/SVG/1.1/DTD/svg11.dtd">
<svg xmlns="http://www.w3.org/2000/svg" height="500.0000" stroke-opacity="1" viewBox="0 0 590 500" font-size="1" width="590.3728" xmlns:xlink="http://www.w3.org/1999/xlink" stroke="rgb(0,0,0)" version="1.1">
  <defs>
  </defs>
  <defs>
  </defs>
  <g stroke-linejoin="miter" stroke-opacity="1.0" fill-opacity="1.0" stroke="rgb(0,0,0)" stroke-width="0.0" fill="rgb(0,0,255)" stroke-linecap="butt" stroke-miterlimit="10.0">
    <path d="M 304.5635,294.2043 c 0.0000,-3.4526 -2.7989,-6.2514 -6.2514 -6.2514c -3.4526,-0.0000 -6.2514,2.7989 -6.2514 6.2514c -0.0000,3.4526 2.7989,6.2514 6.2514 6.2514c 3.4526,0.0000 6.2514,-2.7989 6.2514 -6.2514Z"/>
  </g>
  <defs>
  </defs>
  <g stroke-linejoin="miter" stroke-opacity="1.0" fill-opacity="1.0" stroke="rgb(0,0,0)" stroke-width="0.0" fill="rgb(0,0,255)" stroke-linecap="butt" stroke-miterlimit="10.0">
    <path d="M 39.3380,382.6128 c 0.0000,-3.4526 -2.7989,-6.2514 -6.2514 -6.2514c -3.4526,-0.0000 -6.2514,2.7989 -6.2514 6.2514c -0.0000,3.4526 2.7989,6.2514 6.2514 6.2514c 3.4526,0.0000 6.2514,-2.7989 6.2514 -6.2514Z"/>
  </g>
  <defs>
  </defs>
  <g stroke-linejoin="miter" stroke-opacity="1.0" fill-opacity="1.0" stroke="rgb(0,0,0)" stroke-width="0.0" fill="rgb(0,0,255)" stroke-linecap="butt" stroke-miterlimit="10.0">
    <path d="M 304.5635,294.2043 c 0.0000,-3.4526 -2.7989,-6.2514 -6.2514 -6.2514c -3.4526,-0.0000 -6.2514,2.7989 -6.2514 6.2514c -0.0000,3.4526 2.7989,6.2514 6.2514 6.2514c 3.4526,0.0000 6.2514,-2.7989 6.2514 -6.2514Z"/>
  </g>
  <defs>
  </defs>
  <g stroke-linejoin="miter" stroke-opacity="1.0" fill-opacity="1.0" stroke="rgb(0,0,0)" stroke-width="0.0" fill="rgb(0,0,255)" stroke-linecap="butt" stroke-miterlimit="10.0">
    <path d="M 216.1550,382.6128 c 0.0000,-3.4526 -2.7989,-6.2514 -6.2514 -6.2514c -3.4526,-0.0000 -6.2514,2.7989 -6.2514 6.2514c -0.0000,3.4526 2.7989,6.2514 6.2514 6.2514c 3.4526,0.0000 6.2514,-2.7989 6.2514 -6.2514Z"/>
  </g>
  <defs>
  </defs>
  <g stroke-linejoin="miter" stroke-opacity="1.0" fill-opacity="1.0" stroke="rgb(0,0,0)" stroke-width="0.0" fill="rgb(255,0,0)" stroke-linecap="butt" stroke-miterlimit="10.0">
    <path d="M 304.5635,471.0213 c 0.0000,-3.4526 -2.7989,-6.2514 -6.2514 -6.2514c -3.4526,-0.0000 -6.2514,2.7989 -6.2514 6.2514c -0.0000,3.4526 2.7989,6.2514 6.2514 6.2514c 3.4526,0.0000 6.2514,-2.7989 6.2514 -6.2514Z"/>
  </g>
  <defs>
  </defs>
  <g stroke-linejoin="miter" stroke-opacity="1.0" fill-opacity="1.0" stroke="rgb(0,0,0)" stroke-width="0.0" fill="rgb(255,0,0)" stroke-linecap="butt" stroke-miterlimit="10.0">
    <path d="M 127.7465,471.0213 c 0.0000,-3.4526 -2.7989,-6.2514 -6.2514 -6.2514c -3.4526,-0.0000 -6.2514,2.7989 -6.2514 6.2514c -0.0000,3.4526 2.7989,6.2514 6.2514 6.2514c 3.4526,0.0000 6.2514,-2.7989 6.2514 -6.2514Z"/>
  </g>
  <defs>
  </defs>
  <g stroke-linejoin="miter" stroke-opacity="1.0" fill-opacity="1.0" stroke="rgb(0,0,0)" stroke-width="0.0" fill="rgb(255,0,0)" stroke-linecap="butt" stroke-miterlimit="10.0">
    <path d="M 304.5635,294.2043 c 0.0000,-3.4526 -2.7989,-6.2514 -6.2514 -6.2514c -3.4526,-0.0000 -6.2514,2.7989 -6.2514 6.2514c -0.0000,3.4526 2.7989,6.2514 6.2514 6.2514c 3.4526,0.0000 6.2514,-2.7989 6.2514 -6.2514Z"/>
  </g>
  <defs>
  </defs>
  <g stroke-linejoin="miter" stroke-opacity="1.0" fill-opacity="1.0" stroke="rgb(0,0,0)" stroke-width="0.0" fill="rgb(255,0,0)" stroke-linecap="butt" stroke-miterlimit="10.0">
    <path d="M 127.7465,294.2043 c 0.0000,-3.4526 -2.7989,-6.2514 -6.2514 -6.2514c -3.4526,-0.0000 -6.2514,2.7989 -6.2514 6.2514c -0.0000,3.4526 2.7989,6.2514 6.2514 6.2514c 3.4526,0.0000 6.2514,-2.7989 6.2514 -6.2514Z"/>
  </g>
  <defs>
  </defs>
  <g stroke-linejoin="miter" stroke-opacity="1.0" fill-opacity="1.0" stroke="rgb(0,0,0)" stroke-width="0.0" fill="rgb(0,128,0)" stroke-linecap="butt" stroke-miterlimit="10.0">
    <path d="M 39.3380,28.9787 c 0.0000,-3.4526 -2.7989,-6.2514 -6.2514 -6.2514c -3.4526,-0.0000 -6.2514,2.7989 -6.2514 6.2514c -0.0000,3.4526 2.7989,6.2514 6.2514 6.2514c 3.4526,0.0000 6.2514,-2.7989 6.2514 -6.2514Z"/>
  </g>
  <defs>
  </defs>
  <g stroke-linejoin="miter" stroke-opacity="1.0" fill-opacity="1.0" stroke="rgb(0,0,0)" stroke-width="0.0" fill="rgb(0,128,0)" stroke-linecap="butt" stroke-miterlimit="10.0">
    <path d="M 39.3380,382.6128 c 0.0000,-3.4526 -2.7989,-6.2514 -6.2514 -6.2514c -3.4526,-0.0000 -6.2514,2.7989 -6.2514 6.2514c -0.0000,3.4526 2.7989,6.2514 6.2514 6.2514c 3.4526,0.0000 6.2514,-2.7989 6.2514 -6.2514Z"/>
  </g>
  <defs>
  </defs>
  <g stroke-linejoin="miter" stroke-opacity="1.0" fill-opacity="1.0" stroke="rgb(0,0,0)" stroke-width="0.0" fill="rgb(0,128,0)" stroke-linecap="butt" stroke-miterlimit="10.0">
    <path d="M 216.1550,28.9787 c 0.0000,-3.4526 -2.7989,-6.2514 -6.2514 -6.2514c -3.4526,-0.0000 -6.2514,2.7989 -6.2514 6.2514c -0.0000,3.4526 2.7989,6.2514 6.2514 6.2514c 3.4526,0.0000 6.2514,-2.7989 6.2514 -6.2514Z"/>
  </g>
  <defs>
  </defs>
  <g stroke-linejoin="miter" stroke-opacity="1.0" fill-opacity="1.0" stroke="rgb(0,0,0)" stroke-width="0.0" fill="rgb(0,128,0)" stroke-linecap="butt" stroke-miterlimit="10.0">
    <path d="M 216.1550,382.6128 c 0.0000,-3.4526 -2.7989,-6.2514 -6.2514 -6.2514c -3.4526,-0.0000 -6.2514,2.7989 -6.2514 6.2514c -0.0000,3.4526 2.7989,6.2514 6.2514 6.2514c 3.4526,0.0000 6.2514,-2.7989 6.2514 -6.2514Z"/>
  </g>
  <defs>
  </defs>
  <g stroke-linejoin="miter" stroke-opacity="1.0" fill-opacity="0.0" stroke="rgb(0,0,0)" stroke-width="2.1732423763695263" fill="rgb(0,0,0)" stroke-linecap="butt" stroke-miterlimit="10.0">
    <path d="M 457.4475,188.1140 l -70.7268,-70.7268 "/>
  </g>
  <defs>
  </defs>
  <g stroke-linejoin="miter" stroke-opacity="1.0" fill-opacity="0.0" stroke="rgb(0,0,0)" stroke-width="2.1732423763695263" fill="rgb(0,0,0)" stroke-linecap="butt" stroke-miterlimit="10.0">
    <path d="M 492.8109,223.4774 l 70.7268,70.7268 "/>
  </g>
  <defs>
  </defs>
  <g stroke-linejoin="miter" stroke-opacity="1.0" fill-opacity="0.0" stroke="rgb(0,0,0)" stroke-width="2.1732423763695263" fill="rgb(0,0,0)" stroke-linecap="butt" stroke-miterlimit="10.0">
    <path d="M 475.1292,205.7957 l 88.4085,-88.4085 "/>
  </g>
  <defs>
  </defs>
  <g stroke-linejoin="miter" stroke-opacity="1.0" fill-opacity="0.0" stroke="rgb(0,0,0)" stroke-width="2.1732423763695263" fill="rgb(0,0,0)" stroke-linecap="butt" stroke-miterlimit="10.0">
    <path d="M 475.1292,205.7957 l -88.4085,88.4085 "/>
  </g>
  <defs>
  </defs>
  <g stroke-linejoin="miter" stroke-opacity="1.0" fill-opacity="0.0" stroke="rgb(0,0,0)" stroke-width="2.1732423763695263" fill="rgb(0,0,0)" stroke-linecap="butt" stroke-miterlimit="10.0">
    <path d="M 139.1768,135.0689 l 70.7268,70.7268 "/>
  </g>
  <defs>
  </defs>
  <g stroke-linejoin="miter" stroke-opacity="1.0" fill-opacity="0.0" stroke="rgb(0,0,0)" stroke-width="2.1732423763695263" fill="rgb(0,0,0)" stroke-linecap="butt" stroke-miterlimit="10.0">
    <path d="M 103.8134,99.7055 l -70.7268,-70.7268 "/>
  </g>
  <defs>
  </defs>
  <g stroke-linejoin="miter" stroke-opacity="1.0" fill-opacity="0.0" stroke="rgb(0,0,0)" stroke-width="2.1732423763695263" fill="rgb(0,0,0)" stroke-linecap="butt" stroke-miterlimit="10.0">
    <path d="M 121.4951,117.3872 l 88.4085,-88.4085 "/>
  </g>
  <defs>
  </defs>
  <g stroke-linejoin="miter" stroke-opacity="1.0" fill-opacity="0.0" stroke="rgb(0,0,0)" stroke-width="2.1732423763695263" fill="rgb(0,0,0)" stroke-linecap="butt" stroke-miterlimit="10.0">
    <path d="M 121.4951,117.3872 l -88.4085,88.4085 "/>
  </g>
  <defs>
  </defs>
  <g stroke-linejoin="miter" stroke-opacity="1.0" fill-opacity="0.0" stroke="rgb(0,0,0)" stroke-width="2.1732423763695263" fill="rgb(0,0,0)" stroke-linecap="butt" stroke-miterlimit="10.0">
    <path d="M 139.1768,311.8860 l 70.7268,70.7268 "/>
  </g>
  <defs>
  </defs>
  <g stroke-linejoin="miter" stroke-opacity="1.0" fill-opacity="0.0" stroke="rgb(0,0,0)" stroke-width="2.1732423763695263" fill="rgb(0,0,0)" stroke-linecap="butt" stroke-miterlimit="10.0">
    <path d="M 103.8134,276.5226 l -70.7268,-70.7268 "/>
  </g>
  <defs>
  </defs>
  <g stroke-linejoin="miter" stroke-opacity="1.0" fill-opacity="0.0" stroke="rgb(0,0,0)" stroke-width="2.1732423763695263" fill="rgb(0,0,0)" stroke-linecap="butt" stroke-miterlimit="10.0">
    <path d="M 121.4951,294.2043 l 88.4085,-88.4085 "/>
  </g>
  <defs>
  </defs>
  <g stroke-linejoin="miter" stroke-opacity="1.0" fill-opacity="0.0" stroke="rgb(0,0,0)" stroke-width="2.1732423763695263" fill="rgb(0,0,0)" stroke-linecap="butt" stroke-miterlimit="10.0">
    <path d="M 121.4951,294.2043 l -88.4085,88.4085 "/>
  </g>
</svg>