<?xml version="1.0" encoding="UTF-8"?>
<!DOCTYPE svg PUBLIC "-//W3C//DTD SVG 1.1//EN"
    "http://www.w3.org/Graphics/SVG/1.1/DTD/svg11.dtd">
<svg xmlns="http://www.w3.org/2000/svg" height="100.6576" stroke-opacity="1" viewBox="0 0 400 101" font-size="1" width="400.0000" xmlns:xlink="http://www.w3.org/1999/xlink" stroke="rgb(0,0,0)" version="1.1">
  <defs>
  </defs>
  <defs>
  </defs>
  <g stroke-linejoin="miter" stroke-opacity="1.0" fill-opacity="0.0" stroke="rgb(0,0,0)" stroke-width="0.8026261914692137" fill="rgb(0,0,0)" stroke-linecap="butt" stroke-miterlimit="10.0">
    <path d="M 289.4169,59.0050 c -4.5964,-4.5964 4.5964,-56.6884 33.7066 -50.5599c 29.1103,6.1285 78.1381,70.4775 50.5599 84.2665c -27.5781,13.7891 -131.7622,-22.9818 -151.6798 -50.5599c -19.9175,-27.5781 44.4315,-45.9636 67.4132 -33.7066c 22.9818,12.2570 4.5964,55.1563 -0.0000 50.5599Z"/>
  </g>
  <defs>
  </defs>
  <g stroke-linejoin="miter" stroke-opacity="1.0" fill-opacity="1.0" stroke="rgb(0,0,0)" stroke-width="0.0" fill="rgb(0,0,255)" stroke-linecap="butt" stroke-miterlimit="10.0">
    <path d="M 292.7876,8.4451 c 0.0000,-1.8616 -1.5091,-3.3707 -3.3707 -3.3707c -1.8616,-0.0000 -3.3707,1.5091 -3.3707 3.3707c -0.0000,1.8616 1.5091,3.3707 3.3707 3.3707c 1.8616,0.0000 3.3707,-1.5091 3.3707 -3.3707Z"/>
  </g>
  <defs>
  </defs>
  <g stroke-linejoin="miter" stroke-opacity="1.0" fill-opacity="1.0" stroke="rgb(0,0,0)" stroke-width="0.0" fill="rgb(0,0,255)" stroke-linecap="butt" stroke-miterlimit="10.0">
    <path d="M 225.3744,42.1517 c 0.0000,-1.8616 -1.5091,-3.3707 -3.3707 -3.3707c -1.8616,-0.0000 -3.3707,1.5091 -3.3707 3.3707c -0.0000,1.8616 1.5091,3.3707 3.3707 3.3707c 1.8616,0.0000 3.3707,-1.5091 3.3707 -3.3707Z"/>
  </g>
  <defs>
  </defs>
  <g stroke-linejoin="miter" stroke-opacity="1.0" fill-opacity="1.0" stroke="rgb(0,0,0)" stroke-width="0.0" fill="rgb(0,0,255)" stroke-linecap="butt" stroke-miterlimit="10.0">
    <path d="M 377.0541,92.7116 c 0.0000,-1.8616 -1.5091,-3.3707 -3.3707 -3.3707c -1.8616,-0.0000 -3.3707,1.5091 -3.3707 3.3707c -0.0000,1.8616 1.5091,3.3707 3.3707 3.3707c 1.8616,0.0000 3.3707,-1.5091 3.3707 -3.3707Z"/>
  </g>
  <defs>
  </defs>
  <g stroke-linejoin="miter" stroke-opacity="1.0" fill-opacity="1.0" stroke="rgb(0,0,0)" stroke-width="0.0" fill="rgb(0,0,255)" stroke-linecap="butt" stroke-miterlimit="10.0">
    <path d="M 326.4942,8.4451 c 0.0000,-1.8616 -1.5091,-3.3707 -3.3707 -3.3707c -1.8616,-0.0000 -3.3707,1.5091 -3.3707 3.3707c -0.0000,1.8616 1.5091,3.3707 3.3707 3.3707c 1.8616,0.0000 3.3707,-1.5091 3.3707 -3.3707Z"/>
  </g>
  <defs>
  </defs>
  <g stroke-linejoin="miter" stroke-opacity="1.0" fill-opacity="1.0" stroke="rgb(0,0,0)" stroke-width="0.0" fill="rgb(0,0,255)" stroke-linecap="butt" stroke-miterlimit="10.0">
    <path d="M 292.7876,59.0050 c 0.0000,-1.8616 -1.5091,-3.3707 -3.3707 -3.3707c -1.8616,-0.0000 -3.3707,1.5091 -3.3707 3.3707c -0.0000,1.8616 1.5091,3.3707 3.3707 3.3707c 1.8616,0.0000 3.3707,-1.5091 3.3707 -3.3707Z"/>
  </g>
  <defs>
  </defs>
  <g stroke-linejoin="miter" stroke-opacity="1.0" fill-opacity="0.0" stroke="rgb(0,0,0)" stroke-width="0.8026261914692137" fill="rgb(0,0,0)" stroke-linecap="butt" stroke-miterlimit="10.0">
    <path d="M 93.2609,59.0050 c 3.6114,-32.2019 7.2228,-64.4037 33.7066 -50.5599c 26.4838,13.8438 75.8399,73.7332 50.5599 84.2665c -25.2800,10.5333 -125.1960,-28.2895 -151.6798 -50.5599c -26.4838,-22.2704 20.4647,-27.9885 67.4132 -33.7066"/>
  </g>
  <defs>
  </defs>
  <g stroke-linejoin="miter" stroke-opacity="1.0" fill-opacity="1.0" stroke="rgb(0,0,0)" stroke-width="0.0" fill="rgb(0,0,255)" stroke-linecap="butt" stroke-miterlimit="10.0">
    <path d="M 96.6316,8.4451 c 0.0000,-1.8616 -1.5091,-3.3707 -3.3707 -3.3707c -1.8616,-0.0000 -3.3707,1.5091 -3.3707 3.3707c -0.0000,1.8616 1.5091,3.3707 3.3707 3.3707c 1.8616,0.0000 3.3707,-1.5091 3.3707 -3.3707Z"/>
  </g>
  <defs>
  </defs>
  <g stroke-linejoin="miter" stroke-opacity="1.0" fill-opacity="1.0" stroke="rgb(0,0,0)" stroke-width="0.0" fill="rgb(0,0,255)" stroke-linecap="butt" stroke-miterlimit="10.0">
    <path d="M 29.2184,42.1517 c 0.0000,-1.8616 -1.5091,-3.3707 -3.3707 -3.3707c -1.8616,-0.0000 -3.3707,1.5091 -3.3707 3.3707c -0.0000,1.8616 1.5091,3.3707 3.3707 3.3707c 1.8616,0.0000 3.3707,-1.5091 3.3707 -3.3707Z"/>
  </g>
  <defs>
  </defs>
  <g stroke-linejoin="miter" stroke-opacity="1.0" fill-opacity="1.0" stroke="rgb(0,0,0)" stroke-width="0.0" fill="rgb(0,0,255)" stroke-linecap="butt" stroke-miterlimit="10.0">
    <path d="M 180.8981,92.7116 c 0.0000,-1.8616 -1.5091,-3.3707 -3.3707 -3.3707c -1.8616,-0.0000 -3.3707,1.5091 -3.3707 3.3707c -0.0000,1.8616 1.5091,3.3707 3.3707 3.3707c 1.8616,0.0000 3.3707,-1.5091 3.3707 -3.3707Z"/>
  </g>
  <defs>
  </defs>
  <g stroke-linejoin="miter" stroke-opacity="1.0" fill-opacity="1.0" stroke="rgb(0,0,0)" stroke-width="0.0" fill="rgb(0,0,255)" stroke-linecap="butt" stroke-miterlimit="10.0">
    <path d="M 130.3382,8.4451 c 0.0000,-1.8616 -1.5091,-3.3707 -3.3707 -3.3707c -1.8616,-0.0000 -3.3707,1.5091 -3.3707 3.3707c -0.0000,1.8616 1.5091,3.3707 3.3707 3.3707c 1.8616,0.0000 3.3707,-1.5091 3.3707 -3.3707Z"/>
  </g>
  <defs>
  </defs>
  <g stroke-linejoin="miter" stroke-opacity="1.0" fill-opacity="1.0" stroke="rgb(0,0,0)" stroke-width="0.0" fill="rgb(0,0,255)" stroke-linecap="butt" stroke-miterlimit="10.0">
    <path d="M 96.6316,59.0050 c 0.0000,-1.8616 -1.5091,-3.3707 -3.3707 -3.3707c -1.8616,-0.0000 -3.3707,1.5091 -3.3707 3.3707c -0.0000,1.8616 1.5091,3.3707 3.3707 3.3707c 1.8616,0.0000 3.3707,-1.5091 3.3707 -3.3707Z"/>
  </g>
</svg>